<mxfile host="app.diagrams.net" modified="2023-08-20T03:34:43.881Z" agent="Mozilla/5.0 (Windows NT 10.0; Win64; x64) AppleWebKit/537.36 (KHTML, like Gecko) Chrome/115.0.0.0 Safari/537.36" etag="NO5ZQ8s18L9fem965JwS" version="21.6.8" type="device">
  <diagram name="Page-1" id="qEVXys020AmRQ-J3Impy">
    <mxGraphModel dx="1393" dy="1853" grid="1" gridSize="10" guides="1" tooltips="1" connect="1" arrows="1" fold="1" page="1" pageScale="1" pageWidth="850" pageHeight="1100" math="1" shadow="0">
      <root>
        <mxCell id="0" />
        <mxCell id="1" parent="0" />
        <mxCell id="vrT_-7UtKe9t9iYwfZBF-5" value="&lt;b&gt;Process: &lt;/b&gt;\({\tt ClusterModel}\)&amp;nbsp;instantiation" style="shape=umlFrame;whiteSpace=wrap;html=1;pointerEvents=0;width=260;height=30;fillColor=#b0e3e6;strokeColor=#0e8088;" vertex="1" parent="1">
          <mxGeometry width="1320" height="570" as="geometry" />
        </mxCell>
        <mxCell id="vrT_-7UtKe9t9iYwfZBF-6" value="" style="ellipse;html=1;shape=startState;fillColor=#000000;strokeColor=#ff0000;" vertex="1" parent="1">
          <mxGeometry x="410" y="-100" width="30" height="30" as="geometry" />
        </mxCell>
        <mxCell id="vrT_-7UtKe9t9iYwfZBF-7" value="" style="edgeStyle=orthogonalEdgeStyle;html=1;verticalAlign=bottom;endArrow=open;endSize=8;strokeColor=#ff0000;rounded=0;" edge="1" source="vrT_-7UtKe9t9iYwfZBF-6" parent="1">
          <mxGeometry relative="1" as="geometry">
            <mxPoint x="425" y="30" as="targetPoint" />
          </mxGeometry>
        </mxCell>
        <mxCell id="vrT_-7UtKe9t9iYwfZBF-15" style="edgeStyle=orthogonalEdgeStyle;rounded=0;orthogonalLoop=1;jettySize=auto;html=1;exitX=0;exitY=0.5;exitDx=0;exitDy=0;entryX=0.5;entryY=0;entryDx=0;entryDy=0;" edge="1" parent="1" source="vrT_-7UtKe9t9iYwfZBF-8" target="vrT_-7UtKe9t9iYwfZBF-13">
          <mxGeometry relative="1" as="geometry" />
        </mxCell>
        <mxCell id="vrT_-7UtKe9t9iYwfZBF-8" value="" style="verticalLabelPosition=bottom;verticalAlign=top;html=1;shape=process;whiteSpace=wrap;rounded=1;size=0.14;arcSize=6;align=center;fillColor=#b1ddf0;strokeColor=#000000;gradientColor=none;glass=0;" vertex="1" parent="1">
          <mxGeometry x="310" y="30" width="240" height="50" as="geometry" />
        </mxCell>
        <mxCell id="vrT_-7UtKe9t9iYwfZBF-11" value="\( {\tt @class\_method} \)&lt;br style=&quot;border-color: var(--border-color);&quot;&gt;initializer for \( {\tt ClusterModel}\)&lt;br style=&quot;border-color: var(--border-color);&quot;&gt;&amp;nbsp;" style="text;html=1;strokeColor=none;fillColor=none;align=center;verticalAlign=middle;whiteSpace=wrap;rounded=0;" vertex="1" parent="1">
          <mxGeometry x="340" y="40" width="180" height="40" as="geometry" />
        </mxCell>
        <mxCell id="vrT_-7UtKe9t9iYwfZBF-13" value="" style="shape=step;perimeter=stepPerimeter;whiteSpace=wrap;html=1;fixedSize=1;" vertex="1" parent="1">
          <mxGeometry x="40" y="80" width="210" height="50" as="geometry" />
        </mxCell>
        <mxCell id="vrT_-7UtKe9t9iYwfZBF-14" value="Generate necessary \({\tt field}\)&#39;s from \({\tt RadialProfile}\)&#39;s" style="text;html=1;strokeColor=none;fillColor=none;align=center;verticalAlign=middle;whiteSpace=wrap;rounded=0;" vertex="1" parent="1">
          <mxGeometry x="70" y="90" width="150" height="30" as="geometry" />
        </mxCell>
        <mxCell id="vrT_-7UtKe9t9iYwfZBF-16" value="" style="verticalLabelPosition=bottom;verticalAlign=top;html=1;shape=process;whiteSpace=wrap;rounded=1;size=0.04;arcSize=5;align=center;fillColor=#b1ddf0;strokeColor=#10739e;" vertex="1" parent="1">
          <mxGeometry x="310" y="100" width="500" height="270" as="geometry" />
        </mxCell>
        <mxCell id="vrT_-7UtKe9t9iYwfZBF-21" style="edgeStyle=orthogonalEdgeStyle;rounded=0;orthogonalLoop=1;jettySize=auto;html=1;exitX=0.5;exitY=1;exitDx=0;exitDy=0;entryX=0.5;entryY=0;entryDx=0;entryDy=0;" edge="1" parent="1" source="vrT_-7UtKe9t9iYwfZBF-17" target="vrT_-7UtKe9t9iYwfZBF-20">
          <mxGeometry relative="1" as="geometry" />
        </mxCell>
        <mxCell id="vrT_-7UtKe9t9iYwfZBF-17" value="&lt;div style=&quot;text-align: center;&quot;&gt;&lt;span style=&quot;background-color: initial;&quot;&gt;\({\tt ClusterModel.\_from\_scratch()}\)&lt;/span&gt;&lt;/div&gt;&lt;div style=&quot;text-align: center;&quot;&gt;&lt;span style=&quot;background-color: initial;&quot;&gt;&lt;br&gt;&lt;/span&gt;&lt;/div&gt;" style="text;whiteSpace=wrap;html=1;perimeterSpacing=1;strokeColor=default;" vertex="1" parent="1">
          <mxGeometry x="330" y="100" width="220" height="30" as="geometry" />
        </mxCell>
        <mxCell id="vrT_-7UtKe9t9iYwfZBF-23" style="edgeStyle=orthogonalEdgeStyle;rounded=0;orthogonalLoop=1;jettySize=auto;html=1;exitX=1;exitY=0.5;exitDx=0;exitDy=0;entryX=0.5;entryY=0;entryDx=0;entryDy=0;entryPerimeter=0;" edge="1" parent="1" source="vrT_-7UtKe9t9iYwfZBF-20" target="vrT_-7UtKe9t9iYwfZBF-22">
          <mxGeometry relative="1" as="geometry" />
        </mxCell>
        <mxCell id="vrT_-7UtKe9t9iYwfZBF-20" value="Complete \({\tt field}\) generation" style="shape=step;perimeter=stepPerimeter;whiteSpace=wrap;html=1;fixedSize=1;" vertex="1" parent="1">
          <mxGeometry x="335" y="150" width="210" height="30" as="geometry" />
        </mxCell>
        <mxCell id="vrT_-7UtKe9t9iYwfZBF-18" style="edgeStyle=orthogonalEdgeStyle;rounded=0;orthogonalLoop=1;jettySize=auto;html=1;exitX=1;exitY=0.5;exitDx=0;exitDy=0;entryX=0;entryY=0.5;entryDx=0;entryDy=0;" edge="1" parent="1" source="vrT_-7UtKe9t9iYwfZBF-13" target="vrT_-7UtKe9t9iYwfZBF-17">
          <mxGeometry relative="1" as="geometry">
            <Array as="points">
              <mxPoint x="280" y="105" />
              <mxPoint x="280" y="115" />
            </Array>
          </mxGeometry>
        </mxCell>
        <mxCell id="vrT_-7UtKe9t9iYwfZBF-27" style="edgeStyle=orthogonalEdgeStyle;rounded=0;orthogonalLoop=1;jettySize=auto;html=1;exitX=0;exitY=0.5;exitDx=0;exitDy=0;exitPerimeter=0;entryX=0.5;entryY=0;entryDx=0;entryDy=0;" edge="1" parent="1" source="vrT_-7UtKe9t9iYwfZBF-22" target="vrT_-7UtKe9t9iYwfZBF-24">
          <mxGeometry relative="1" as="geometry" />
        </mxCell>
        <mxCell id="vrT_-7UtKe9t9iYwfZBF-32" style="edgeStyle=orthogonalEdgeStyle;rounded=0;orthogonalLoop=1;jettySize=auto;html=1;exitX=1;exitY=0.5;exitDx=0;exitDy=0;exitPerimeter=0;entryX=0.5;entryY=0;entryDx=0;entryDy=0;" edge="1" parent="1" source="vrT_-7UtKe9t9iYwfZBF-22" target="vrT_-7UtKe9t9iYwfZBF-31">
          <mxGeometry relative="1" as="geometry" />
        </mxCell>
        <mxCell id="vrT_-7UtKe9t9iYwfZBF-22" value="\({\tt is\_physical}\)?" style="strokeWidth=2;html=1;shape=mxgraph.flowchart.decision;whiteSpace=wrap;" vertex="1" parent="1">
          <mxGeometry x="500" y="190" width="130" height="50" as="geometry" />
        </mxCell>
        <mxCell id="vrT_-7UtKe9t9iYwfZBF-26" style="edgeStyle=orthogonalEdgeStyle;rounded=0;orthogonalLoop=1;jettySize=auto;html=1;exitX=0.5;exitY=1;exitDx=0;exitDy=0;entryX=0.5;entryY=0;entryDx=0;entryDy=0;" edge="1" parent="1" source="vrT_-7UtKe9t9iYwfZBF-24" target="vrT_-7UtKe9t9iYwfZBF-25">
          <mxGeometry relative="1" as="geometry" />
        </mxCell>
        <mxCell id="vrT_-7UtKe9t9iYwfZBF-24" value="return \({\tt ClusterGenerator}\) instance" style="shape=step;perimeter=stepPerimeter;whiteSpace=wrap;html=1;fixedSize=1;fillColor=#d5e8d4;strokeColor=#82b366;" vertex="1" parent="1">
          <mxGeometry x="30" y="490" width="260" height="30" as="geometry" />
        </mxCell>
        <mxCell id="vrT_-7UtKe9t9iYwfZBF-25" value="" style="ellipse;html=1;shape=endState;fillColor=#000000;strokeColor=#ff0000;" vertex="1" parent="1">
          <mxGeometry x="145" y="600" width="30" height="30" as="geometry" />
        </mxCell>
        <mxCell id="vrT_-7UtKe9t9iYwfZBF-28" value="\({\tt True}\)" style="text;html=1;strokeColor=none;fillColor=none;align=center;verticalAlign=middle;whiteSpace=wrap;rounded=0;fontColor=#006600;" vertex="1" parent="1">
          <mxGeometry x="450" y="190" width="60" height="30" as="geometry" />
        </mxCell>
        <mxCell id="vrT_-7UtKe9t9iYwfZBF-33" style="edgeStyle=orthogonalEdgeStyle;rounded=0;orthogonalLoop=1;jettySize=auto;html=1;exitX=0;exitY=0.5;exitDx=0;exitDy=0;" edge="1" parent="1" source="vrT_-7UtKe9t9iYwfZBF-31">
          <mxGeometry relative="1" as="geometry">
            <mxPoint x="160" y="270" as="targetPoint" />
          </mxGeometry>
        </mxCell>
        <mxCell id="vrT_-7UtKe9t9iYwfZBF-31" value="\({\tt \_require\_physical}\)?" style="shape=hexagon;perimeter=hexagonPerimeter2;whiteSpace=wrap;html=1;fixedSize=1;" vertex="1" parent="1">
          <mxGeometry x="580" y="255" width="170" height="30" as="geometry" />
        </mxCell>
        <mxCell id="vrT_-7UtKe9t9iYwfZBF-34" value="\({\tt False&lt;br&gt;}\)" style="text;html=1;strokeColor=none;fillColor=none;align=center;verticalAlign=middle;whiteSpace=wrap;rounded=0;fontColor=#CC0000;" vertex="1" parent="1">
          <mxGeometry x="520" y="250" width="60" height="30" as="geometry" />
        </mxCell>
        <mxCell id="vrT_-7UtKe9t9iYwfZBF-35" value="" style="verticalLabelPosition=bottom;verticalAlign=top;html=1;shape=process;whiteSpace=wrap;rounded=1;size=0;arcSize=8;align=center;fillColor=#b1ddf0;strokeColor=#10739e;" vertex="1" parent="1">
          <mxGeometry x="900" y="255" width="340" height="240" as="geometry" />
        </mxCell>
        <mxCell id="vrT_-7UtKe9t9iYwfZBF-40" style="edgeStyle=orthogonalEdgeStyle;rounded=0;orthogonalLoop=1;jettySize=auto;html=1;exitX=0.5;exitY=1;exitDx=0;exitDy=0;entryX=0.582;entryY=0;entryDx=0;entryDy=0;entryPerimeter=0;" edge="1" parent="1" source="vrT_-7UtKe9t9iYwfZBF-36" target="vrT_-7UtKe9t9iYwfZBF-39">
          <mxGeometry relative="1" as="geometry" />
        </mxCell>
        <mxCell id="vrT_-7UtKe9t9iYwfZBF-36" value="&lt;div style=&quot;text-align: center;&quot;&gt;&lt;span style=&quot;background-color: initial;&quot;&gt;\({\tt model.force\_physical(fields)}\)&lt;/span&gt;&lt;/div&gt;&lt;div style=&quot;text-align: center;&quot;&gt;&lt;span style=&quot;background-color: initial;&quot;&gt;&lt;br&gt;&lt;/span&gt;&lt;/div&gt;" style="text;whiteSpace=wrap;html=1;perimeterSpacing=1;strokeColor=default;" vertex="1" parent="1">
          <mxGeometry x="920" y="255" width="220" height="30" as="geometry" />
        </mxCell>
        <mxCell id="vrT_-7UtKe9t9iYwfZBF-37" style="edgeStyle=orthogonalEdgeStyle;rounded=0;orthogonalLoop=1;jettySize=auto;html=1;exitX=1;exitY=0.5;exitDx=0;exitDy=0;entryX=0;entryY=0.5;entryDx=0;entryDy=0;" edge="1" parent="1" source="vrT_-7UtKe9t9iYwfZBF-31" target="vrT_-7UtKe9t9iYwfZBF-36">
          <mxGeometry relative="1" as="geometry" />
        </mxCell>
        <mxCell id="vrT_-7UtKe9t9iYwfZBF-38" value="\({\tt True&lt;br&gt;}\) or&lt;br&gt;\({\tt rebuild}\)" style="text;html=1;strokeColor=none;fillColor=none;align=center;verticalAlign=middle;whiteSpace=wrap;rounded=0;fontColor=#006600;" vertex="1" parent="1">
          <mxGeometry x="830" y="240" width="60" height="30" as="geometry" />
        </mxCell>
        <mxCell id="vrT_-7UtKe9t9iYwfZBF-42" style="edgeStyle=orthogonalEdgeStyle;rounded=0;orthogonalLoop=1;jettySize=auto;html=1;exitX=0.5;exitY=1;exitDx=0;exitDy=0;entryX=0.5;entryY=0;entryDx=0;entryDy=0;" edge="1" parent="1" source="vrT_-7UtKe9t9iYwfZBF-39" target="vrT_-7UtKe9t9iYwfZBF-41">
          <mxGeometry relative="1" as="geometry" />
        </mxCell>
        <mxCell id="vrT_-7UtKe9t9iYwfZBF-39" value="Remove \(\rho_i &amp;lt; 0\)&lt;br&gt;\({\tt dens[dens&amp;lt;0] = 0}\)" style="shape=step;perimeter=stepPerimeter;whiteSpace=wrap;html=1;fixedSize=1;" vertex="1" parent="1">
          <mxGeometry x="930" y="300" width="170" height="40" as="geometry" />
        </mxCell>
        <mxCell id="vrT_-7UtKe9t9iYwfZBF-44" style="edgeStyle=orthogonalEdgeStyle;rounded=0;orthogonalLoop=1;jettySize=auto;html=1;exitX=0.5;exitY=1;exitDx=0;exitDy=0;entryX=0.331;entryY=-0.067;entryDx=0;entryDy=0;entryPerimeter=0;" edge="1" parent="1" source="vrT_-7UtKe9t9iYwfZBF-41" target="vrT_-7UtKe9t9iYwfZBF-43">
          <mxGeometry relative="1" as="geometry" />
        </mxCell>
        <mxCell id="vrT_-7UtKe9t9iYwfZBF-41" value="Recalcuate \(M_i(&amp;lt;r)\)&lt;br&gt;(force monotonic)" style="shape=step;perimeter=stepPerimeter;whiteSpace=wrap;html=1;fixedSize=1;" vertex="1" parent="1">
          <mxGeometry x="930" y="370" width="170" height="40" as="geometry" />
        </mxCell>
        <mxCell id="vrT_-7UtKe9t9iYwfZBF-47" style="edgeStyle=orthogonalEdgeStyle;rounded=0;orthogonalLoop=1;jettySize=auto;html=1;exitX=1;exitY=0.5;exitDx=0;exitDy=0;entryX=0.5;entryY=0;entryDx=0;entryDy=0;" edge="1" parent="1" source="vrT_-7UtKe9t9iYwfZBF-43" target="vrT_-7UtKe9t9iYwfZBF-46">
          <mxGeometry relative="1" as="geometry">
            <Array as="points">
              <mxPoint x="1190" y="520" />
              <mxPoint x="850" y="520" />
              <mxPoint x="850" y="300" />
              <mxPoint x="570" y="300" />
            </Array>
          </mxGeometry>
        </mxCell>
        <mxCell id="vrT_-7UtKe9t9iYwfZBF-43" value="return \({\tt fields}\)" style="shape=step;perimeter=stepPerimeter;whiteSpace=wrap;html=1;fixedSize=1;fillColor=#d5e8d4;strokeColor=#82b366;" vertex="1" parent="1">
          <mxGeometry x="930" y="440" width="260" height="30" as="geometry" />
        </mxCell>
        <mxCell id="vrT_-7UtKe9t9iYwfZBF-51" style="edgeStyle=orthogonalEdgeStyle;rounded=0;orthogonalLoop=1;jettySize=auto;html=1;exitX=0;exitY=0.5;exitDx=0;exitDy=0;" edge="1" parent="1" source="vrT_-7UtKe9t9iYwfZBF-46">
          <mxGeometry relative="1" as="geometry">
            <mxPoint x="160" y="335" as="targetPoint" />
          </mxGeometry>
        </mxCell>
        <mxCell id="vrT_-7UtKe9t9iYwfZBF-56" style="edgeStyle=orthogonalEdgeStyle;rounded=0;orthogonalLoop=1;jettySize=auto;html=1;exitX=1;exitY=0.5;exitDx=0;exitDy=0;entryX=0.899;entryY=-0.031;entryDx=0;entryDy=0;entryPerimeter=0;" edge="1" parent="1" source="vrT_-7UtKe9t9iYwfZBF-46" target="vrT_-7UtKe9t9iYwfZBF-54">
          <mxGeometry relative="1" as="geometry" />
        </mxCell>
        <mxCell id="vrT_-7UtKe9t9iYwfZBF-46" value="\({\tt \_require\_physical == rebuild}\)?" style="shape=hexagon;perimeter=hexagonPerimeter2;whiteSpace=wrap;html=1;fixedSize=1;" vertex="1" parent="1">
          <mxGeometry x="450" y="320" width="240" height="30" as="geometry" />
        </mxCell>
        <mxCell id="vrT_-7UtKe9t9iYwfZBF-52" value="\({\tt False&lt;br&gt;}\)" style="text;html=1;strokeColor=none;fillColor=none;align=center;verticalAlign=middle;whiteSpace=wrap;rounded=0;fontColor=#CC0000;" vertex="1" parent="1">
          <mxGeometry x="400" y="310" width="60" height="30" as="geometry" />
        </mxCell>
        <mxCell id="vrT_-7UtKe9t9iYwfZBF-53" value="" style="verticalLabelPosition=bottom;verticalAlign=top;html=1;shape=process;whiteSpace=wrap;rounded=1;size=0.04;arcSize=5;align=center;fillColor=#b1ddf0;strokeColor=#10739e;" vertex="1" parent="1">
          <mxGeometry x="300" y="455" width="500" height="100" as="geometry" />
        </mxCell>
        <mxCell id="vrT_-7UtKe9t9iYwfZBF-59" style="edgeStyle=orthogonalEdgeStyle;rounded=0;orthogonalLoop=1;jettySize=auto;html=1;exitX=0.5;exitY=1;exitDx=0;exitDy=0;entryX=0.447;entryY=0.025;entryDx=0;entryDy=0;entryPerimeter=0;" edge="1" parent="1" source="vrT_-7UtKe9t9iYwfZBF-54" target="vrT_-7UtKe9t9iYwfZBF-58">
          <mxGeometry relative="1" as="geometry" />
        </mxCell>
        <mxCell id="vrT_-7UtKe9t9iYwfZBF-54" value="&lt;div style=&quot;text-align: center;&quot;&gt;&lt;span style=&quot;background-color: initial;&quot;&gt;\({\tt ClusterModel.\_rebuild\_from\_arrays()}\)&lt;/span&gt;&lt;/div&gt;&lt;div style=&quot;text-align: center;&quot;&gt;&lt;span style=&quot;background-color: initial;&quot;&gt;&lt;br&gt;&lt;/span&gt;&lt;/div&gt;" style="text;whiteSpace=wrap;html=1;perimeterSpacing=1;strokeColor=default;" vertex="1" parent="1">
          <mxGeometry x="320" y="455" width="275" height="30" as="geometry" />
        </mxCell>
        <mxCell id="vrT_-7UtKe9t9iYwfZBF-57" value="\({\tt True}\)" style="text;html=1;strokeColor=none;fillColor=none;align=center;verticalAlign=middle;whiteSpace=wrap;rounded=0;fontColor=#006600;" vertex="1" parent="1">
          <mxGeometry x="580" y="380" width="60" height="30" as="geometry" />
        </mxCell>
        <mxCell id="vrT_-7UtKe9t9iYwfZBF-60" style="edgeStyle=orthogonalEdgeStyle;rounded=0;orthogonalLoop=1;jettySize=auto;html=1;exitX=1;exitY=0.5;exitDx=0;exitDy=0;entryX=1;entryY=0.5;entryDx=0;entryDy=0;" edge="1" parent="1" source="vrT_-7UtKe9t9iYwfZBF-58" target="vrT_-7UtKe9t9iYwfZBF-17">
          <mxGeometry relative="1" as="geometry">
            <Array as="points">
              <mxPoint x="1300" y="525" />
              <mxPoint x="1300" y="115" />
            </Array>
          </mxGeometry>
        </mxCell>
        <mxCell id="vrT_-7UtKe9t9iYwfZBF-58" value="Rebuild \(T_g(r)\) from rebuilt \({\tt fields}\)" style="shape=step;perimeter=stepPerimeter;whiteSpace=wrap;html=1;fixedSize=1;" vertex="1" parent="1">
          <mxGeometry x="325" y="505" width="300" height="40" as="geometry" />
        </mxCell>
      </root>
    </mxGraphModel>
  </diagram>
</mxfile>
